<svg version="1.1" xmlns="http://www.w3.org/2000/svg" viewBox="0 0 1190.0687843453502 572.353534250987" width="1190.0687843453502" height="572.353534250987" class="excalidraw-svg">
  <!-- svg-source:excalidraw -->
  
  <defs>
    <style class="style-fonts">
      @font-face {
        font-family: "Virgil";
        src: url("https://excalidraw.com/Virgil.woff2");
      }
      @font-face {
        font-family: "Cascadia";
        src: url("https://excalidraw.com/Cascadia.woff2");
      }
      @font-face {
        font-family: "Assistant";
        src: url("https://excalidraw.com/Assistant-Regular.woff2");
      }
    </style>
    
  </defs>
  <rect x="0" y="0" width="1190.0687843453502" height="572.353534250987" fill="#ffffff"/><g stroke-linecap="round" transform="translate(627.0849961593627 10) rotate(0 120 34)"><path d="M17 0 C84.3 0, 151.6 0, 223 0 C234.33 0, 240 5.67, 240 17 C240 25.86, 240 34.72, 240 51 C240 62.33, 234.33 68, 223 68 C151.98 68, 80.95 68, 17 68 C5.67 68, 0 62.33, 0 51 C0 43.17, 0 35.34, 0 17 C0 5.67, 5.67 0, 17 0" stroke="none" stroke-width="0" fill="#a5d8ff"/><path d="M17 0 C81.62 0, 146.23 0, 223 0 M17 0 C94.66 0, 172.32 0, 223 0 M223 0 C234.33 0, 240 5.67, 240 17 M223 0 C234.33 0, 240 5.67, 240 17 M240 17 C240 27.3, 240 37.6, 240 51 M240 17 C240 28.73, 240 40.47, 240 51 M240 51 C240 62.33, 234.33 68, 223 68 M240 51 C240 62.33, 234.33 68, 223 68 M223 68 C162.61 68, 102.22 68, 17 68 M223 68 C166.26 68, 109.51 68, 17 68 M17 68 C5.67 68, 0 62.33, 0 51 M17 68 C5.67 68, 0 62.33, 0 51 M0 51 C0 42.14, 0 33.27, 0 17 M0 51 C0 37.83, 0 24.66, 0 17 M0 17 C0 5.67, 5.67 0, 17 0 M0 17 C0 5.67, 5.67 0, 17 0" stroke="#1e1e1e" stroke-width="2" fill="none"/></g><g transform="translate(726.7090195968627 32.5) rotate(0 20.3759765625 11.5)"><text x="20.3759765625" y="0" font-family="Helvetica, Segoe UI Emoji" font-size="20px" fill="#1e1e1e" text-anchor="middle" style="white-space: pre;" direction="ltr" dominant-baseline="text-before-edge">IAT2</text></g><g stroke-linecap="round" transform="translate(315.2466822728481 202.236048830683) rotate(0 120 34)"><path d="M17 0 C86.29 0, 155.58 0, 223 0 C234.33 0, 240 5.67, 240 17 C240 28.31, 240 39.63, 240 51 C240 62.33, 234.33 68, 223 68 C176.26 68, 129.52 68, 17 68 C5.67 68, 0 62.33, 0 51 C0 42.52, 0 34.03, 0 17 C0 5.67, 5.67 0, 17 0" stroke="none" stroke-width="0" fill="#b2f2bb"/><path d="M17 0 C94.66 0, 172.32 0, 223 0 M17 0 C75.83 0, 134.67 0, 223 0 M223 0 C234.33 0, 240 5.67, 240 17 M223 0 C234.33 0, 240 5.67, 240 17 M240 17 C240 28.73, 240 40.47, 240 51 M240 17 C240 26.44, 240 35.89, 240 51 M240 51 C240 62.33, 234.33 68, 223 68 M240 51 C240 62.33, 234.33 68, 223 68 M223 68 C166.26 68, 109.51 68, 17 68 M223 68 C155.06 68, 87.11 68, 17 68 M17 68 C5.67 68, 0 62.33, 0 51 M17 68 C5.67 68, 0 62.33, 0 51 M0 51 C0 37.83, 0 24.66, 0 17 M0 51 C0 42.54, 0 34.08, 0 17 M0 17 C0 5.67, 5.67 0, 17 0 M0 17 C0 5.67, 5.67 0, 17 0" stroke="#1e1e1e" stroke-width="2" fill="none"/></g><g transform="translate(355.4126978978481 224.736048830683) rotate(0 79.833984375 11.5)"><text x="79.833984375" y="0" font-family="Helvetica, Segoe UI Emoji" font-size="20px" fill="#1e1e1e" text-anchor="middle" style="white-space: pre;" direction="ltr" dominant-baseline="text-before-edge">2AT2 (Assembler)</text></g><g stroke-linecap="round" transform="translate(940.0687843453503 202.5833526361792) rotate(0 120 34)"><path d="M17 0 C89.2 0, 161.41 0, 223 0 C234.33 0, 240 5.67, 240 17 C240 24.4, 240 31.81, 240 51 C240 62.33, 234.33 68, 223 68 C167.62 68, 112.24 68, 17 68 C5.67 68, 0 62.33, 0 51 C0 40.67, 0 30.34, 0 17 C0 5.67, 5.67 0, 17 0" stroke="none" stroke-width="0" fill="#ffec99"/><path d="M17 0 C65.02 0, 113.03 0, 223 0 M17 0 C70.77 0, 124.55 0, 223 0 M223 0 C234.33 0, 240 5.67, 240 17 M223 0 C234.33 0, 240 5.67, 240 17 M240 17 C240 26.44, 240 35.88, 240 51 M240 17 C240 29.06, 240 41.12, 240 51 M240 51 C240 62.33, 234.33 68, 223 68 M240 51 C240 62.33, 234.33 68, 223 68 M223 68 C163.43 68, 103.86 68, 17 68 M223 68 C178.71 68, 134.41 68, 17 68 M17 68 C5.67 68, 0 62.33, 0 51 M17 68 C5.67 68, 0 62.33, 0 51 M0 51 C0 39.41, 0 27.83, 0 17 M0 51 C0 43.71, 0 36.42, 0 17 M0 17 C0 5.67, 5.67 0, 17 0 M0 17 C0 5.67, 5.67 0, 17 0" stroke="#1e1e1e" stroke-width="2" fill="none"/></g><g transform="translate(1002.2709327828503 213.5833526361792) rotate(0 57.7978515625 23)"><text x="57.7978515625" y="0" font-family="Helvetica, Segoe UI Emoji" font-size="20px" fill="#1e1e1e" text-anchor="middle" style="white-space: pre;" direction="ltr" dominant-baseline="text-before-edge">VAT2 (Virtual</text><text x="57.7978515625" y="23" font-family="Helvetica, Segoe UI Emoji" font-size="20px" fill="#1e1e1e" text-anchor="middle" style="white-space: pre;" direction="ltr" dominant-baseline="text-before-edge">Processor)</text></g><g stroke-linecap="round" transform="translate(10 384.4146497757604) rotate(0 120 34)"><path d="M17 0 C92.99 0, 168.99 0, 223 0 C234.33 0, 240 5.67, 240 17 C240 29.14, 240 41.28, 240 51 C240 62.33, 234.33 68, 223 68 C148.86 68, 74.72 68, 17 68 C5.67 68, 0 62.33, 0 51 C0 42.37, 0 33.74, 0 17 C0 5.67, 5.67 0, 17 0" stroke="none" stroke-width="0" fill="#b2f2bb"/><path d="M17 0 C74.86 0, 132.72 0, 223 0 M17 0 C74.54 0, 132.08 0, 223 0 M223 0 C234.33 0, 240 5.67, 240 17 M223 0 C234.33 0, 240 5.67, 240 17 M240 17 C240 24.05, 240 31.1, 240 51 M240 17 C240 24.32, 240 31.64, 240 51 M240 51 C240 62.33, 234.33 68, 223 68 M240 51 C240 62.33, 234.33 68, 223 68 M223 68 C172.8 68, 122.59 68, 17 68 M223 68 C144.2 68, 65.41 68, 17 68 M17 68 C5.67 68, 0 62.33, 0 51 M17 68 C5.67 68, 0 62.33, 0 51 M0 51 C0 43.59, 0 36.19, 0 17 M0 51 C0 42.77, 0 34.53, 0 17 M0 17 C0 5.67, 5.67 0, 17 0 M0 17 C0 5.67, 5.67 0, 17 0" stroke="#1e1e1e" stroke-width="2" fill="none"/></g><g transform="translate(100.546875 406.9146497757604) rotate(0 29.453125 11.5)"><text x="29.453125" y="0" font-family="Helvetica, Segoe UI Emoji" font-size="20px" fill="#1e1e1e" text-anchor="middle" style="white-space: pre;" direction="ltr" dominant-baseline="text-before-edge">Parser</text></g><g stroke-linecap="round" transform="translate(314.85962627709654 382.9387363288131) rotate(0 120 34)"><path d="M17 0 C86.78 0, 156.57 0, 223 0 C234.33 0, 240 5.67, 240 17 C240 25.13, 240 33.27, 240 51 C240 62.33, 234.33 68, 223 68 C168.73 68, 114.45 68, 17 68 C5.67 68, 0 62.33, 0 51 C0 38.69, 0 26.38, 0 17 C0 5.67, 5.67 0, 17 0" stroke="none" stroke-width="0" fill="#b2f2bb"/><path d="M17 0 C62.36 0, 107.72 0, 223 0 M17 0 C87.4 0, 157.81 0, 223 0 M223 0 C234.33 0, 240 5.67, 240 17 M223 0 C234.33 0, 240 5.67, 240 17 M240 17 C240 28.94, 240 40.88, 240 51 M240 17 C240 28.19, 240 39.39, 240 51 M240 51 C240 62.33, 234.33 68, 223 68 M240 51 C240 62.33, 234.33 68, 223 68 M223 68 C149.75 68, 76.5 68, 17 68 M223 68 C142.39 68, 61.79 68, 17 68 M17 68 C5.67 68, 0 62.33, 0 51 M17 68 C5.67 68, 0 62.33, 0 51 M0 51 C0 42.03, 0 33.06, 0 17 M0 51 C0 39.98, 0 28.96, 0 17 M0 17 C0 5.67, 5.67 0, 17 0 M0 17 C0 5.67, 5.67 0, 17 0" stroke="#1e1e1e" stroke-width="2" fill="none"/></g><g transform="translate(403.73169658959654 405.4387363288131) rotate(0 31.1279296875 11.5)"><text x="31.1279296875" y="0" font-family="Helvetica, Segoe UI Emoji" font-size="20px" fill="#1e1e1e" text-anchor="middle" style="white-space: pre;" direction="ltr" dominant-baseline="text-before-edge">Builder</text></g><g stroke-linecap="round" transform="translate(617.1084677761783 384.9262129495796) rotate(0 120 34)"><path d="M17 0 C63.91 0, 110.83 0, 223 0 C234.33 0, 240 5.67, 240 17 C240 25.77, 240 34.55, 240 51 C240 62.33, 234.33 68, 223 68 C151.68 68, 80.36 68, 17 68 C5.67 68, 0 62.33, 0 51 C0 40.79, 0 30.58, 0 17 C0 5.67, 5.67 0, 17 0" stroke="none" stroke-width="0" fill="#b2f2bb"/><path d="M17 0 C70.59 0, 124.18 0, 223 0 M17 0 C60.75 0, 104.49 0, 223 0 M223 0 C234.33 0, 240 5.67, 240 17 M223 0 C234.33 0, 240 5.67, 240 17 M240 17 C240 23.99, 240 30.98, 240 51 M240 17 C240 26.16, 240 35.32, 240 51 M240 51 C240 62.33, 234.33 68, 223 68 M240 51 C240 62.33, 234.33 68, 223 68 M223 68 C152.13 68, 81.26 68, 17 68 M223 68 C164.43 68, 105.87 68, 17 68 M17 68 C5.67 68, 0 62.33, 0 51 M17 68 C5.67 68, 0 62.33, 0 51 M0 51 C0 40.54, 0 30.07, 0 17 M0 51 C0 39.27, 0 27.55, 0 17 M0 17 C0 5.67, 5.67 0, 17 0 M0 17 C0 5.67, 5.67 0, 17 0" stroke="#1e1e1e" stroke-width="2" fill="none"/></g><g transform="translate(662.0791709011783 407.4262129495796) rotate(0 75.029296875 11.5)"><text x="75.029296875" y="0" font-family="Helvetica, Segoe UI Emoji" font-size="20px" fill="#1e1e1e" text-anchor="middle" style="white-space: pre;" direction="ltr" dominant-baseline="text-before-edge">Binary Converter</text></g><g transform="translate(26.721958335131717 465.66710874043963) rotate(0 136.1669921875 34.5)"><text x="0" y="0" font-family="Helvetica, Segoe UI Emoji" font-size="20px" fill="#1e1e1e" text-anchor="start" style="white-space: pre;" direction="ltr" dominant-baseline="text-before-edge">- Read .aop</text><text x="0" y="23" font-family="Helvetica, Segoe UI Emoji" font-size="20px" fill="#1e1e1e" text-anchor="start" style="white-space: pre;" direction="ltr" dominant-baseline="text-before-edge">- Split instruction</text><text x="0" y="46" font-family="Helvetica, Segoe UI Emoji" font-size="20px" fill="#1e1e1e" text-anchor="start" style="white-space: pre;" direction="ltr" dominant-baseline="text-before-edge">- Give instruction set to Builder</text></g><g transform="translate(327.7477643913801 470.35353425098697) rotate(0 138.5546875 46)"><text x="0" y="0" font-family="Helvetica, Segoe UI Emoji" font-size="20px" fill="#1e1e1e" text-anchor="start" style="white-space: pre;" direction="ltr" dominant-baseline="text-before-edge">- Sort instructions</text><text x="0" y="23" font-family="Helvetica, Segoe UI Emoji" font-size="20px" fill="#1e1e1e" text-anchor="start" style="white-space: pre;" direction="ltr" dominant-baseline="text-before-edge">- Transform specific instruction </text><text x="0" y="46" font-family="Helvetica, Segoe UI Emoji" font-size="20px" fill="#1e1e1e" text-anchor="start" style="white-space: pre;" direction="ltr" dominant-baseline="text-before-edge">to shorter instructions</text><text x="0" y="69" font-family="Helvetica, Segoe UI Emoji" font-size="20px" fill="#1e1e1e" text-anchor="start" style="white-space: pre;" direction="ltr" dominant-baseline="text-before-edge">- Send them to Converter</text></g><g transform="translate(633.4893839954304 471.317884524115) rotate(0 163.96484375 23)"><text x="0" y="0" font-family="Helvetica, Segoe UI Emoji" font-size="20px" fill="#1e1e1e" text-anchor="start" style="white-space: pre;" direction="ltr" dominant-baseline="text-before-edge">- Convert each instruction into Binary</text><text x="0" y="23" font-family="Helvetica, Segoe UI Emoji" font-size="20px" fill="#1e1e1e" text-anchor="start" style="white-space: pre;" direction="ltr" dominant-baseline="text-before-edge">- Create a binary file in output</text></g><g transform="translate(957.6120826541264 288.87020581328255) rotate(0 95.595703125 34.5)"><text x="0" y="0" font-family="Helvetica, Segoe UI Emoji" font-size="20px" fill="#1e1e1e" text-anchor="start" style="white-space: pre;" direction="ltr" dominant-baseline="text-before-edge">- Read binary file</text><text x="0" y="23" font-family="Helvetica, Segoe UI Emoji" font-size="20px" fill="#1e1e1e" text-anchor="start" style="white-space: pre;" direction="ltr" dominant-baseline="text-before-edge">- Execute instructions</text><text x="0" y="46" font-family="Helvetica, Segoe UI Emoji" font-size="20px" fill="#1e1e1e" text-anchor="start" style="white-space: pre;" direction="ltr" dominant-baseline="text-before-edge">- Return the result</text></g><g stroke-linecap="round"><g transform="translate(429.37841599622493 149.39784797902814) rotate(0 313.0319635792194 0)"><path d="M0 0 C104.34 0, 521.72 0, 626.06 0 M0 0 C104.34 0, 521.72 0, 626.06 0" stroke="#1e1e1e" stroke-width="2" fill="none"/></g></g><mask/><g stroke-linecap="round"><g transform="translate(1054.0726561215188 147.2850551173412) rotate(0 -0.81015975749267 23.912377569658616)"><path d="M0 0 C-0.27 7.97, -1.35 39.85, -1.62 47.82 M0 0 C-0.27 7.97, -1.35 39.85, -1.62 47.82" stroke="#1e1e1e" stroke-width="2" fill="none"/></g><g transform="translate(1054.0726561215188 147.2850551173412) rotate(0 -0.81015975749267 23.912377569658616)"><path d="M-9.04 25.08 C-6.7 32.23, -4.37 39.39, -1.62 47.82 M-9.04 25.08 C-6.24 33.65, -3.45 42.22, -1.62 47.82" stroke="#1e1e1e" stroke-width="2" fill="none"/></g><g transform="translate(1054.0726561215188 147.2850551173412) rotate(0 -0.81015975749267 23.912377569658616)"><path d="M7.32 25.63 C4.51 32.61, 1.69 39.6, -1.62 47.82 M7.32 25.63 C3.95 33.99, 0.58 42.35, -1.62 47.82" stroke="#1e1e1e" stroke-width="2" fill="none"/></g></g><mask/><g stroke-linecap="round"><g transform="translate(430.3721543066082 148.40410966864488) rotate(0 0 23.849719449198403)"><path d="M0 0 C0 7.95, 0 39.75, 0 47.7 M0 0 C0 7.95, 0 39.75, 0 47.7" stroke="#1e1e1e" stroke-width="2" fill="none"/></g><g transform="translate(430.3721543066082 148.40410966864488) rotate(0 0 23.849719449198403)"><path d="M-8.16 25.29 C-5.54 32.47, -2.93 39.65, 0 47.7 M-8.16 25.29 C-6.33 30.3, -4.51 35.3, 0 47.7" stroke="#1e1e1e" stroke-width="2" fill="none"/></g><g transform="translate(430.3721543066082 148.40410966864488) rotate(0 0 23.849719449198403)"><path d="M8.16 25.29 C5.54 32.47, 2.93 39.65, 0 47.7 M8.16 25.29 C6.33 30.3, 4.51 35.3, 0 47.7" stroke="#1e1e1e" stroke-width="2" fill="none"/></g></g><mask/><g stroke-linecap="round"><g transform="translate(744.2922853945453 79.60088340112316) rotate(0 -0.5595272756518739 34.13116381476331)"><path d="M0 0 C-0.19 11.38, -0.93 56.89, -1.12 68.26 M0 0 C-0.19 11.38, -0.93 56.89, -1.12 68.26" stroke="#1e1e1e" stroke-width="2" fill="none"/></g></g><mask/><g stroke-linecap="round"><g transform="translate(735.3398489841155 329.15004834185174) rotate(0 -300.46614702504763 0.5595272756518455)"><path d="M0 0 C-100.16 0.19, -500.78 0.93, -600.93 1.12 M0 0 C-100.16 0.19, -500.78 0.93, -600.93 1.12" stroke="#1e1e1e" stroke-width="2" fill="none"/></g></g><mask/><g stroke-linecap="round"><g transform="translate(736.4589035354193 329.15004834185174) rotate(0 0 24.059672853029866)"><path d="M0 0 C0 8.02, 0 40.1, 0 48.12 M0 0 C0 8.02, 0 40.1, 0 48.12" stroke="#1e1e1e" stroke-width="2" fill="none"/></g><g transform="translate(736.4589035354193 329.15004834185174) rotate(0 0 24.059672853029866)"><path d="M-8.23 25.51 C-5.55 32.86, -2.88 40.2, 0 48.12 M-8.23 25.51 C-5.17 33.91, -2.12 42.3, 0 48.12" stroke="#1e1e1e" stroke-width="2" fill="none"/></g><g transform="translate(736.4589035354193 329.15004834185174) rotate(0 0 24.059672853029866)"><path d="M8.23 25.51 C5.55 32.86, 2.88 40.2, 0 48.12 M8.23 25.51 C5.17 33.91, 2.12 42.3, 0 48.12" stroke="#1e1e1e" stroke-width="2" fill="none"/></g></g><mask/><g stroke-linecap="round"><g transform="translate(426.48079282429 329.15004834185174) rotate(0 0 22.940618301726175)"><path d="M0 0 C0 7.65, 0 38.23, 0 45.88 M0 0 C0 7.65, 0 38.23, 0 45.88" stroke="#1e1e1e" stroke-width="2" fill="none"/></g><g transform="translate(426.48079282429 329.15004834185174) rotate(0 0 22.940618301726175)"><path d="M-7.85 24.32 C-5.86 29.78, -3.87 35.24, 0 45.88 M-7.85 24.32 C-5.57 30.58, -3.29 36.84, 0 45.88" stroke="#1e1e1e" stroke-width="2" fill="none"/></g><g transform="translate(426.48079282429 329.15004834185174) rotate(0 0 22.940618301726175)"><path d="M7.85 24.32 C5.86 29.78, 3.87 35.24, 0 45.88 M7.85 24.32 C5.57 30.58, 3.29 36.84, 0 45.88" stroke="#1e1e1e" stroke-width="2" fill="none"/></g></g><mask/><g stroke-linecap="round"><g transform="translate(134.40755493402025 329.15004834185174) rotate(0 -1.1190545513037478 24.059672853029866)"><path d="M0 0 C-0.37 8.02, -1.87 40.1, -2.24 48.12 M0 0 C-0.37 8.02, -1.87 40.1, -2.24 48.12" stroke="#1e1e1e" stroke-width="2" fill="none"/></g><g transform="translate(134.40755493402025 329.15004834185174) rotate(0 -1.1190545513037478 24.059672853029866)"><path d="M-9.42 25.13 C-7.67 30.7, -5.93 36.28, -2.24 48.12 M-9.42 25.13 C-7.01 32.82, -4.61 40.52, -2.24 48.12" stroke="#1e1e1e" stroke-width="2" fill="none"/></g><g transform="translate(134.40755493402025 329.15004834185174) rotate(0 -1.1190545513037478 24.059672853029866)"><path d="M7.04 25.89 C4.79 31.28, 2.54 36.67, -2.24 48.12 M7.04 25.89 C3.94 33.33, 0.83 40.77, -2.24 48.12" stroke="#1e1e1e" stroke-width="2" fill="none"/></g></g><mask/><g stroke-linecap="round"><g transform="translate(426.4807928242901 329.15004834185174) rotate(0 -5.684341886080802e-14 -29.654945609548463)"><path d="M0 0 C0 -9.88, 0 -49.42, 0 -59.31 M0 0 C0 -9.88, 0 -49.42, 0 -59.31" stroke="#1e1e1e" stroke-width="2" fill="none"/></g></g><mask/></svg>